<?xml version="1.0" encoding="utf-8"?>
<!-- Generator: Adobe Illustrator 19.1.0, SVG Export Plug-In . SVG Version: 6.00 Build 0)  -->
<svg version="1.1" xmlns="http://www.w3.org/2000/svg" xmlns:xlink="http://www.w3.org/1999/xlink" x="0px" y="0px"
	 viewBox="0 0 649 485" style="enable-background:new 0 0 649 485;" xml:space="preserve">
<style type="text/css">
	.st0{opacity:0.5;}
	.st1{fill:url(#SVGID_1_);}
	.st2{fill:#AF9C78;}
	.st3{fill:#CAB489;}
	.st4{fill:#D8BF91;}
	.st5{fill:#796D53;}
	.st6{opacity:0.48;fill:#4D4431;}
	.st7{fill:#9D8D6D;}
	.st8{fill:#C9B288;}
	.st9{fill:#000300;}
	.st10{fill:#182022;}
	.st11{fill:none;stroke:#E2E55E;stroke-width:0.2263;}
	.st12{fill:#283133;}
	.st13{fill:#3A4446;}
	.st14{fill:#ECD5A8;}
	.st15{opacity:0.44;fill:#231F20;}
	.st16{fill:#231F20;}
	.st17{fill:#32471F;}
	.st18{opacity:0.41;fill:#030202;}
	.st19{fill:url(#SVGID_2_);}
	.st20{fill:#FDF5E4;}
	.st21{fill:#080909;}
	.st22{fill:url(#SVGID_3_);}
	.st23{fill:url(#SVGID_4_);}
	.st24{fill:#393834;}
	.st25{fill:#414240;}
	.st26{fill:#FFFFFF;}
	.st27{fill:#A8A3B2;}
	.st28{opacity:0.69;fill:#A19A8B;}
	.st29{fill:#474A49;}
	.st30{fill:url(#SVGID_5_);}
	.st31{fill:#F9B76E;}
	.st32{fill:#BC5A28;}
	.st33{opacity:0.22;fill:#A19A8B;}
	.st34{fill:#F2C8C4;}
	.st35{fill:url(#SVGID_6_);}
	.st36{opacity:0.25;fill:#A19A8B;}
	.st37{opacity:0.32;fill:#A19A8B;}
	.st38{opacity:0.39;fill:#A19A8B;}
	.st39{opacity:0.35;fill:#A19A8B;}
	.st40{fill:#F3F4F4;}
	.st41{fill:#A19A8B;}
	.st42{opacity:0.29;fill:#A19A8B;}
</style>
<defs>
<g id='mayanPyramid'>
<g id="Vector_Background">
	<g class="st0">
		
			<radialGradient id="SVGID_1_" cx="328.892" cy="238.2564" r="290.5456" gradientTransform="matrix(0.9893 0 0 0.9841 -0.1002 8.0492)" gradientUnits="userSpaceOnUse">
			<stop  offset="0.5573" style="stop-color:#FFFFFF"/>
			<stop  offset="1" style="stop-color:#FFE49D"/>
		</radialGradient>
		<rect x="0" y="0" class="st1" width="649" height="485"/>
	</g>
</g>
<g id="Vector_Graphics">
	<g>
		<polygon class="st2" points="400.9,252 399.3,254.1 337.2,231.7 259,255.9 257,254.1 337.1,228.8 		"/>
		<polygon class="st3" points="259,255.9 259,265.3 337.4,244.9 399.6,266 399.3,253.6 337.2,231.7 		"/>
		<polygon class="st2" points="256.8,271.8 258.5,272.3 337.7,251.1 398.7,271 400.9,268.6 337.4,248.5 256.2,271 		"/>
		<polygon class="st4" points="258.5,272.3 258.5,284.2 341.1,270.5 399,284.9 399,270.3 337.6,250.6 		"/>
		<polygon class="st5" points="307.4,261.7 307.4,270.4 314.1,269.2 314,260.2 		"/>
		<polygon class="st5" points="291.2,265.7 291.2,275.7 301.9,273.3 301.9,262.9 		"/>
		<polygon class="st5" points="363.8,263.6 371.9,266 372.5,279 364.4,276.9 		"/>
		<polygon class="st4" points="257.4,246.3 338.1,220 400.8,245 400.7,252.4 337.4,229.8 257.1,254.5 		"/>
		<polygon class="st4" points="257,263.9 337.9,240.2 400.8,262.6 400.9,268.7 337.2,248.5 256.6,270.9 		"/>
		<polygon class="st6" points="338,270.8 338,250.6 337.2,248.5 337.2,240.5 337.9,240.2 337.2,231.7 337.4,229.8 337.8,220.1 
			257.4,246.3 257,254.1 259,255.9 259,263.2 257,263.9 256.2,271 258.5,272.3 258.5,284.2 		"/>
		<path class="st7" d="M359.5,276.7c0.3,0.1,39.9,8.1,39.9,8.1l2.8,3l206.2,192.1c0,0-37.6-0.1-38.1,0.1
			c-0.5,0.2-134.9-131.5-134.9-131.5L359.5,276.7z"/>
		<path class="st8" d="M408,288.3c1.7,0.7,13.8,3.5,13.8,3.5l4.1,14.5l22.1,7.2l6.2,20.2l19.3,1.9l7.6,18.6l17.6,3.8l7.6,16.6
			l17.6,4.5l10.3,17.9l15.9,2.1l10,19.7l14.5,1l10.3,19.7l16.2,0.7l10.7,16.6l15.5,1l10.4,27.3h-26.9L403.2,289.7L408,288.3z"/>
		<rect x="149.9" y="458.1" class="st9" width="15.2" height="27"/>
		<polygon class="st10" points="244.4,286 228.1,289.9 223.3,307.1 204,311.8 195.4,331.8 178,334.1 169.2,352 152.2,355.2 
			142.8,372.9 126.2,376.2 117.9,394.6 99.5,396.4 90.6,415.3 72.8,417.1 63.6,436.7 46.6,437.8 38.3,456.4 19.5,456.4 11.2,485 
			60.2,485 179.6,358.9 247.7,287.6 		"/>
		<path class="st7" d="M569.1,481.9C568.8,480.5,351,270.7,351,270.7l0.7,14.5c0,0,37.7,65.4,81.1,117.7
			c35,42.1,77.6,73.5,77.3,73.1C509.4,475.3,569.1,481.9,569.1,481.9z"/>
		<polygon class="st6" points="279.8,269.3 279.8,278 286.5,276.8 286.4,267.7 		"/>
		<path class="st11" d="M258.5,284.2"/>
		<path class="st10" d="M110,485l-0.1-6.3l193.9-203.9v8.2L165.7,468.4V485h-3.5v-21.5c0,0,0.7-5.5-5.1-5.5c-5.7,0-5.1,6.2-5.1,6.2
			V485h-29.9H110z"/>
		<polygon class="st12" points="165.7,485 165.7,468.4 303.8,283 303.8,274.8 331.2,267.6 332.9,279.8 354.7,485 		"/>
		<polygon class="st4" points="611.9,485 610.7,477.6 570.8,477.9 571.8,485 		"/>
		<polygon class="st4" points="607.6,475.9 606.4,472.3 565.1,472.3 569.6,476.1 		"/>
		<polygon class="st4" points="601.6,470.3 600.5,466.8 558.8,466.6 563.4,470.2 		"/>
		<polygon class="st4" points="595.7,464.8 594.6,461.4 553.1,460.8 557.3,464.4 		"/>
		<polygon class="st4" points="589.8,459.3 588.7,455.9 546.8,455.1 551.2,458.7 		"/>
		<polygon class="st4" points="583.9,453.9 582.9,450.5 540.3,449.3 545.1,452.9 		"/>
		<polygon class="st4" points="578.1,448.4 573.2,445.1 534.2,443.7 539,447.2 		"/>
		<polygon class="st4" points="572.2,443 571.3,439.7 529.1,438 533,441.5 		"/>
		<polygon class="st4" points="566.4,437.6 565.5,434.4 522.9,432.4 527,435.8 		"/>
		<polygon class="st4" points="560.7,432.3 559.8,429 517.9,426.8 521,430.2 		"/>
		<polygon class="st4" points="554.9,426.9 554,423.7 511.6,421.2 515,424.6 		"/>
		<polygon class="st4" points="549.2,421.6 548.4,418.4 505.1,415.6 509.1,419 		"/>
		<polygon class="st4" points="543.5,416.3 542.7,413.2 499.2,410.1 503.2,413.4 		"/>
		<polygon class="st4" points="537.8,411.1 537,407.9 493.8,404.6 497.3,407.9 		"/>
		<polygon class="st4" points="532.2,405.8 531.4,402.7 487.7,399.1 491.5,402.4 		"/>
		<polygon class="st4" points="526.6,400.6 525.8,397.5 482.2,393.7 485.7,396.9 		"/>
		<polygon class="st4" points="521,395.4 520.3,392.4 476.8,388.3 479.9,391.4 		"/>
		<polygon class="st4" points="515.4,390.2 514.7,387.2 471.4,382.9 474.1,386 		"/>
		<polygon class="st4" points="509.9,385 509.2,382.1 465.5,377.5 468.4,380.6 		"/>
		<polygon class="st4" points="504.3,379.9 503.7,377 459.9,372.1 462.6,375.2 		"/>
		<polygon class="st4" points="498.8,374.8 498.2,371.9 454.6,366.8 456.9,369.8 		"/>
		<polygon class="st4" points="493.3,369.7 492.8,366.8 449.3,361.5 451.3,364.5 		"/>
		<polygon class="st4" points="487.9,364.6 487.4,361.8 443.3,356.2 445.7,359.2 		"/>
		<polygon class="st4" points="482.5,359.6 482,356.8 437.2,351 440,353.9 		"/>
		<polygon class="st4" points="477.1,354.6 476.6,351.8 431.9,345.7 434.5,348.6 		"/>
		<polygon class="st4" points="471.7,349.6 471.2,346.8 426.9,340.5 428.9,343.4 		"/>
		<polygon class="st4" points="466.3,344.6 465.9,341.9 421.3,335.3 423.4,338.1 		"/>
		<polygon class="st4" points="461,339.6 460.6,336.9 416.3,330.2 417.8,332.9 		"/>
		<polygon class="st4" points="455.7,334.7 455.3,332 410.5,325 412.4,327.8 		"/>
		<polygon class="st4" points="450.4,329.8 450,327.1 404.8,319.9 406.9,322.6 		"/>
		<polygon class="st4" points="445.1,324.9 444.8,322.3 399.8,314.8 401.5,317.5 		"/>
		<polygon class="st4" points="439.8,320 439.5,317.4 396,309.7 396,312.4 		"/>
		<polygon class="st4" points="434.6,315.1 434.3,312.6 390.6,304.7 390.7,307.3 		"/>
		<polygon class="st4" points="429.4,310.3 429.2,307.8 385.3,299.7 385.3,302.2 		"/>
		<polygon class="st4" points="424.2,305.5 424,303 379.9,294.6 379.9,297.2 		"/>
		<polygon class="st4" points="419.1,300.7 418.9,298.2 374.7,289.7 374.6,292.2 		"/>
		<polygon class="st4" points="413.9,295.9 413.8,293.5 369.4,284.7 369.3,287.2 		"/>
		<polygon class="st4" points="408.8,291.1 408.7,288.7 364.1,279.8 364.1,282.2 		"/>
		<polygon class="st4" points="401.4,286.4 401.3,284 358.9,274.8 358.8,277.3 		"/>
		<path class="st4" d="M355.2,485l-24-217l21.9,4.8l0.7,16.2l13.1,0l2.8,22.1l11.3-0.1l3.8,21.1l13.4,0.3l4.6,23.3l17.1-0.4
			l4.5,22.7l10.5-0.4l7.1,25.5l11-0.2c0,0,8.5,25.5,9.6,25.5c1.2,0,10-0.3,10-0.3l15,22.9h11l11.4,33.9L355.2,485z"/>
		<polygon class="st10" points="251.2,285.6 262,283.5 295.6,278 97.6,485 61.5,485 251.7,291.4 		"/>
		<polygon class="st10" points="251.7,284.8 251.7,291.3 61.8,485 54.9,485 54.9,479.1 85.7,444.5 		"/>
		<polygon class="st12" points="243.6,286 46.4,479.1 55.1,479.1 251.7,284.8 		"/>
		<polygon class="st12" points="56.4,485 57.6,481.2 96.7,481 95.6,485 		"/>
		<polygon class="st12" points="61.7,478.8 62.8,475 100.9,474.6 99.9,478.6 		"/>
		<polygon class="st12" points="67.7,472.8 68.8,469.1 106.9,468.4 106,472.3 		"/>
		<polygon class="st12" points="73.7,466.9 74.8,463.1 112.9,462.3 112,466.1 		"/>
		<polygon class="st12" points="79.6,460.9 80.7,457.3 118.9,456.2 118,460 		"/>
		<polygon class="st12" points="85.5,455.1 86.5,451.5 124.8,450.1 124,453.9 		"/>
		<polygon class="st12" points="91.3,449.3 92.3,445.7 130.6,444.2 129.8,447.9 		"/>
		<polygon class="st12" points="97.1,443.5 98,440 136.4,438.2 135.7,441.9 		"/>
		<polygon class="st12" points="102.8,437.8 103.7,434.3 142.2,432.4 141.4,436 		"/>
		<polygon class="st12" points="108.5,432.2 109.3,428.7 147.8,426.5 147.2,430.1 		"/>
		<polygon class="st12" points="114.1,426.6 114.9,423.2 153.5,420.8 152.8,424.3 		"/>
		<polygon class="st12" points="119.6,421 120.5,417.7 159.1,415.1 158.5,418.5 		"/>
		<polygon class="st12" points="125.2,415.5 125.9,412.2 164.6,409.4 164,412.8 		"/>
		<polygon class="st12" points="130.7,410 131.4,406.8 170.1,403.8 169.5,407.1 		"/>
		<polygon class="st12" points="136.1,404.6 136.8,401.4 175.5,398.2 175,401.5 		"/>
		<polygon class="st12" points="141.5,399.2 142.2,396.1 180.9,392.7 180.4,395.9 		"/>
		<polygon class="st12" points="146.8,393.9 147.5,390.8 186.3,387.2 185.8,390.4 		"/>
		<polygon class="st12" points="152.1,388.6 152.7,385.5 191.6,381.8 191.2,384.9 		"/>
		<polygon class="st12" points="157.4,383.3 158,380.3 196.8,376.4 196.4,379.5 		"/>
		<polygon class="st12" points="162.6,378.1 163.1,375.2 202.1,371 201.7,374.1 		"/>
		<polygon class="st12" points="167.8,373 168.3,370 207.2,365.7 206.9,368.8 		"/>
		<polygon class="st12" points="172.9,367.9 173.4,365 212.3,360.5 212,363.5 		"/>
		<polygon class="st12" points="178,362.8 178.4,359.9 217.4,355.3 217.2,358.3 		"/>
		<polygon class="st12" points="183,357.8 183.5,354.9 222.5,350.1 222.2,353.1 		"/>
		<polygon class="st12" points="188,352.8 188.4,350 227.5,345 227.2,347.9 		"/>
		<polygon class="st12" points="193,347.8 193.4,345.1 232.4,339.9 232.2,342.8 		"/>
		<polygon class="st12" points="197.9,342.9 198.3,340.2 237.3,334.9 237.2,337.7 		"/>
		<polygon class="st12" points="202.8,338 203.1,335.3 242.2,329.9 242.1,332.7 		"/>
		<polygon class="st12" points="207.6,333.2 207.9,330.5 247,325 246.9,327.7 		"/>
		<polygon class="st12" points="212.5,328.4 212.7,325.8 251.8,320.1 251.8,322.7 		"/>
		<polygon class="st12" points="217.2,323.7 217.5,321.1 256.6,315.2 256.5,317.8 		"/>
		<polygon class="st12" points="221.9,318.9 222.2,316.4 261.3,310.4 261.3,313 		"/>
		<polygon class="st12" points="226.6,314.3 226.9,311.7 266,305.6 266,308.1 		"/>
		<polygon class="st12" points="231.3,309.6 231.5,307.1 270.6,300.8 270.6,303.4 		"/>
		<polygon class="st12" points="235.9,305 236.1,302.5 275.2,296.1 275.3,298.6 		"/>
		<polygon class="st12" points="240.5,300.4 240.6,298 279.8,291.4 279.9,293.9 		"/>
		<polygon class="st12" points="245.1,295.9 245.2,293.5 284.3,286.8 284.4,289.2 		"/>
		<polygon class="st12" points="249.6,291.4 249.7,289 288.8,282.2 288.9,284.6 		"/>
		<polygon class="st12" points="254.1,286.9 254.1,284.6 293.3,277.6 293.4,280 		"/>
		<rect x="46.4" y="479.1" class="st13" width="8.5" height="5.9"/>
		<polygon class="st12" points="293.1,276.8 95,479 109.9,478.7 303.8,274.8 		"/>
		<polygon class="st4" points="351.1,271 564.6,478.3 571.8,478.3 355.9,272.1 		"/>
		<rect x="564.6" y="478.2" class="st14" width="7.4" height="6.8"/>
		<polygon class="st8" points="400.1,284.8 400.1,288.5 607,481.6 608.5,476.6 		"/>
		<polygon class="st4" points="400.1,284.8 607.3,477.4 611.9,477.5 404.2,286.2 		"/>
		<polygon class="st15" points="353.5,273.1 564.6,478.2 564.6,485 512.6,485 471.2,485 474.6,452.5 449.7,452.2 453.9,430.1 
			441.2,430.1 446.2,403.1 419.8,403.1 428.5,378.1 404.8,378.1 413.4,355.8 387.9,355.8 395.7,332.5 373.3,332.5 381.1,311.1 
			362.9,311.1 366.9,289 350.1,289 		"/>
		<rect x="95" y="478.3" class="st13" width="14.9" height="6.7"/>
		<rect x="607.2" y="477.4" class="st14" width="4.7" height="7.7"/>
	</g>
</g>
<g id="VectorOpenStock_Logo">
	<g>
		<g>
			<g>
				<g>
					<g>
						<path class="st16" d="M608.9,468.3c-0.2,0-0.4-0.1-0.5-0.2c-0.1-0.1-0.2-0.3-0.2-0.5c0-0.2,0.1-0.3,0.2-0.5
							c0.1-0.1,0.3-0.2,0.5-0.2c0.2,0,0.4,0.1,0.5,0.2c0.1,0.1,0.2,0.3,0.2,0.5c0,0.2-0.1,0.4-0.2,0.5
							C609.3,468.3,609.1,468.3,608.9,468.3z"/>
						<path class="st16" d="M615.6,466.8c0,0.2,0,0.3-0.1,0.5c-0.1,0.2-0.2,0.4-0.4,0.5c-0.2,0.2-0.4,0.3-0.7,0.4
							c-0.3,0.1-0.6,0.1-1,0.1c-0.8,0-1.4-0.2-1.8-0.7c-0.4-0.5-0.7-1.1-0.7-1.8c0-0.5,0.1-1,0.3-1.4c0.2-0.4,0.5-0.7,0.9-0.9
							c0.4-0.2,0.8-0.3,1.4-0.3c0.3,0,0.6,0,0.9,0.1c0.3,0.1,0.5,0.2,0.7,0.4c0.2,0.2,0.3,0.3,0.4,0.5c0.1,0.2,0.2,0.3,0.2,0.5
							c0,0.2-0.1,0.3-0.2,0.4c-0.1,0.1-0.3,0.2-0.4,0.2c-0.1,0-0.2,0-0.3-0.1c-0.1-0.1-0.1-0.1-0.2-0.3c-0.2-0.2-0.3-0.4-0.5-0.5
							c-0.2-0.1-0.4-0.2-0.6-0.2c-0.4,0-0.7,0.1-0.9,0.4c-0.2,0.3-0.3,0.7-0.3,1.2c0,0.2,0,0.5,0.1,0.7c0.1,0.2,0.1,0.4,0.3,0.5
							c0.1,0.1,0.2,0.2,0.4,0.3c0.2,0.1,0.3,0.1,0.5,0.1c0.3,0,0.5-0.1,0.7-0.2c0.2-0.1,0.3-0.3,0.5-0.5c0.1-0.1,0.2-0.3,0.3-0.3
							c0.1-0.1,0.2-0.1,0.3-0.1c0.2,0,0.3,0.1,0.4,0.2C615.6,466.5,615.6,466.6,615.6,466.8z"/>
						<path class="st16" d="M621.5,465.8c0,0.4-0.1,0.7-0.2,1c-0.1,0.3-0.3,0.6-0.5,0.8c-0.2,0.2-0.5,0.4-0.8,0.5
							c-0.3,0.1-0.7,0.2-1,0.2c-0.4,0-0.7-0.1-1-0.2c-0.3-0.1-0.6-0.3-0.8-0.5c-0.2-0.2-0.4-0.5-0.5-0.8c-0.1-0.3-0.2-0.7-0.2-1
							c0-0.4,0.1-0.7,0.2-1c0.1-0.3,0.3-0.6,0.5-0.8c0.2-0.2,0.5-0.4,0.8-0.5c0.3-0.1,0.7-0.2,1-0.2c0.4,0,0.7,0.1,1,0.2
							c0.3,0.1,0.6,0.3,0.8,0.5c0.2,0.2,0.4,0.5,0.5,0.8C621.4,465,621.5,465.4,621.5,465.8z M620.2,465.8c0-0.5-0.1-0.9-0.3-1.2
							c-0.2-0.3-0.5-0.4-0.9-0.4c-0.2,0-0.5,0.1-0.7,0.2c-0.2,0.1-0.3,0.3-0.4,0.6c-0.1,0.2-0.2,0.5-0.2,0.9c0,0.3,0,0.6,0.2,0.9
							c0.1,0.2,0.2,0.4,0.4,0.6c0.2,0.1,0.4,0.2,0.7,0.2c0.4,0,0.7-0.1,0.9-0.4C620.1,466.7,620.2,466.3,620.2,465.8z"/>
						<path class="st16" d="M626.7,465.9v1.7c0,0.3-0.1,0.5-0.2,0.6c-0.1,0.1-0.3,0.2-0.5,0.2c-0.2,0-0.3-0.1-0.5-0.2
							c-0.1-0.1-0.2-0.3-0.2-0.6v-2c0-0.3,0-0.6,0-0.7c0-0.2-0.1-0.3-0.2-0.4c-0.1-0.1-0.2-0.2-0.5-0.2c-0.4,0-0.7,0.1-0.8,0.4
							c-0.1,0.3-0.2,0.7-0.2,1.2v1.7c0,0.3-0.1,0.5-0.2,0.6c-0.1,0.1-0.3,0.2-0.5,0.2c-0.2,0-0.4-0.1-0.5-0.2
							c-0.1-0.1-0.2-0.3-0.2-0.6v-3.6c0-0.2,0.1-0.4,0.2-0.5c0.1-0.1,0.3-0.2,0.4-0.2c0.2,0,0.3,0.1,0.4,0.2
							c0.1,0.1,0.2,0.3,0.2,0.5v0.1c0.2-0.3,0.5-0.5,0.7-0.6c0.2-0.1,0.5-0.2,0.8-0.2c0.3,0,0.6,0.1,0.8,0.2
							c0.2,0.1,0.4,0.3,0.6,0.6c0.2-0.3,0.4-0.5,0.7-0.6c0.2-0.1,0.5-0.2,0.8-0.2c0.3,0,0.6,0.1,0.9,0.2c0.3,0.1,0.4,0.3,0.6,0.6
							c0.1,0.2,0.2,0.6,0.2,1.1v2.5c0,0.3-0.1,0.5-0.2,0.6c-0.1,0.1-0.3,0.2-0.5,0.2s-0.4-0.1-0.5-0.2c-0.1-0.1-0.2-0.3-0.2-0.6
							v-2.1c0-0.3,0-0.5,0-0.7c0-0.2-0.1-0.3-0.2-0.4c-0.1-0.1-0.3-0.2-0.5-0.2c-0.2,0-0.3,0-0.5,0.1c-0.2,0.1-0.3,0.2-0.4,0.4
							C626.7,464.9,626.7,465.3,626.7,465.9z"/>
					</g>
					<g>
						<path class="st16" d="M484.3,468.2c-0.8,0-1.6-0.2-2.4-0.5c-0.7-0.3-1.4-0.8-1.9-1.3c-0.5-0.6-1-1.2-1.3-1.9
							c-0.3-0.7-0.5-1.5-0.5-2.4v-5.6c0-0.2,0.1-0.5,0.3-0.6c0.2-0.2,0.4-0.3,0.6-0.3c0.3,0,0.5,0.1,0.7,0.3
							c0.2,0.2,0.3,0.4,0.3,0.6v5.6c0,0.5,0.1,1,0.3,1.5c0.2,0.5,0.4,0.9,0.8,1.3c0.3,0.4,0.7,0.7,1.1,1c0.4,0.3,0.9,0.4,1.4,0.5
							v-9.9c0-0.2,0.1-0.5,0.3-0.6c0.2-0.2,0.4-0.3,0.7-0.3c0.3,0,0.5,0.1,0.6,0.3c0.2,0.2,0.3,0.4,0.3,0.6v10.9
							c0,0.3-0.1,0.5-0.3,0.7c-0.2,0.2-0.4,0.3-0.7,0.3H484.3z"/>
						<path class="st16" d="M490.6,455.6c0.5,0,1,0.1,1.4,0.3c0.4,0.2,0.8,0.5,1.2,0.8c0.3,0.3,0.6,0.7,0.8,1.2
							c0.2,0.4,0.3,0.9,0.3,1.4v0.4c0,0.5-0.1,1-0.3,1.4c-0.2,0.4-0.5,0.8-0.8,1.2c-0.3,0.3-0.7,0.6-1.2,0.8
							c-0.4,0.2-0.9,0.3-1.4,0.3h-1.9v1.2c0,0.5,0.2,0.9,0.5,1.3c0.4,0.4,0.8,0.5,1.3,0.5c0.4,0,0.8-0.1,1.1-0.4
							c0.3-0.2,0.5-0.5,0.7-0.9c0.1-0.3,0.2-0.4,0.4-0.6c0.2-0.1,0.5-0.1,0.7-0.1c0.2,0.1,0.4,0.2,0.5,0.4c0.1,0.2,0.2,0.4,0.1,0.7
							c-0.3,0.8-0.7,1.4-1.3,1.9c-0.6,0.5-1.4,0.7-2.2,0.7c-0.5,0-1-0.1-1.4-0.3c-0.4-0.2-0.8-0.5-1.2-0.8c-0.3-0.3-0.6-0.7-0.8-1.2
							c-0.2-0.5-0.3-0.9-0.3-1.4v-5.3c0-0.5,0.1-1,0.3-1.4c0.2-0.4,0.5-0.8,0.8-1.2c0.3-0.3,0.7-0.6,1.2-0.8
							C489.6,455.7,490.1,455.6,490.6,455.6z M488.7,461.6h1.9c0.5,0,0.9-0.2,1.3-0.6c0.4-0.4,0.5-0.8,0.5-1.3v-0.4
							c0-0.5-0.2-0.9-0.5-1.3c-0.4-0.4-0.8-0.5-1.3-0.5c-0.5,0-1,0.2-1.3,0.5c-0.4,0.4-0.5,0.8-0.5,1.3V461.6z"/>
						<path class="st16" d="M501.1,459.2c0-0.1,0-0.2,0-0.3c0-0.1,0-0.1,0-0.1c-0.1-0.3-0.2-0.6-0.5-0.8c-0.3-0.3-0.8-0.5-1.3-0.5
							c-0.5,0-0.9,0.2-1.3,0.5c-0.3,0.3-0.5,0.8-0.5,1.3v5.4c0,0.5,0.2,0.9,0.5,1.3c0.3,0.3,0.8,0.5,1.3,0.5c0.5,0,0.9-0.2,1.3-0.5
							c0.3-0.4,0.5-0.8,0.5-1.3c0-0.2,0.1-0.5,0.3-0.6c0.2-0.2,0.4-0.3,0.7-0.3c0.2,0,0.5,0.1,0.6,0.3c0.2,0.2,0.3,0.4,0.3,0.6
							c0,1-0.4,1.8-1.1,2.6c-0.7,0.7-1.6,1.1-2.5,1.1c-1,0-1.9-0.4-2.6-1.1c-0.7-0.7-1.1-1.6-1.1-2.6v-5.4c0-1,0.4-1.9,1.1-2.6
							c0.7-0.7,1.6-1.1,2.6-1.1c1,0,1.8,0.4,2.5,1.1c0.7,0.7,1.1,1.6,1.1,2.5v0c0,0.3-0.1,0.5-0.3,0.6c-0.2,0.2-0.4,0.3-0.6,0.3
							c-0.3,0-0.5-0.1-0.7-0.3C501.2,459.6,501.1,459.4,501.1,459.2z"/>
						<path class="st16" d="M508,466.4c0.2,0,0.4,0.1,0.6,0.3c0.2,0.2,0.3,0.4,0.3,0.7c0,0.3-0.1,0.5-0.3,0.7
							c-0.2,0.2-0.4,0.3-0.6,0.3c-1,0-1.9-0.4-2.6-1.1c-0.7-0.7-1.1-1.6-1.1-2.6v-8.1c0-0.3,0.1-0.5,0.3-0.7
							c0.2-0.2,0.4-0.3,0.7-0.3c0.3,0,0.5,0.1,0.6,0.3c0.2,0.2,0.3,0.4,0.3,0.7v0.4h1c0.3,0,0.5,0.1,0.6,0.3
							c0.2,0.2,0.3,0.4,0.3,0.6c0,0.3-0.1,0.5-0.3,0.7c-0.2,0.2-0.4,0.3-0.6,0.3h-1v5.9c0,0.5,0.2,0.9,0.5,1.3
							C507.1,466.2,507.5,466.4,508,466.4z"/>
						<path class="st16" d="M516.8,456.6c0.7,0.7,1.1,1.6,1.1,2.6v5.4c0,1-0.4,1.8-1.1,2.5c-0.7,0.7-1.6,1.1-2.6,1.1h-0.4
							c-1,0-1.8-0.4-2.5-1.1c-0.7-0.7-1.1-1.6-1.1-2.5v-5.4c0-1,0.4-1.9,1.1-2.6c0.7-0.7,1.6-1.1,2.5-1.1h0.4
							C515.2,455.5,516.1,455.9,516.8,456.6z M516,459.2c0-0.5-0.2-0.9-0.5-1.3c-0.3-0.3-0.8-0.5-1.3-0.5h-0.4
							c-0.5,0-0.9,0.2-1.3,0.5c-0.3,0.4-0.5,0.8-0.5,1.3v5.4c0,0.5,0.2,0.9,0.5,1.3c0.4,0.3,0.8,0.5,1.3,0.5h0.4
							c0.5,0,0.9-0.2,1.3-0.5c0.3-0.3,0.5-0.8,0.5-1.3V459.2z"/>
						<path class="st16" d="M519.3,459.2c0-1,0.4-1.9,1.1-2.6c0.7-0.7,1.6-1.1,2.6-1.1c0.3,0,0.5,0.1,0.6,0.3
							c0.2,0.2,0.3,0.4,0.3,0.6c0,0.3-0.1,0.5-0.3,0.7c-0.2,0.1-0.4,0.2-0.7,0.2c-0.5,0-0.9,0.2-1.2,0.5c-0.3,0.3-0.5,0.8-0.5,1.3
							v7.3c0,0.5-0.2,0.9-0.5,1.2c-0.4,0.3-0.8,0.5-1.3,0.5V459.2z"/>
					</g>
					<path class="st16" d="M532.2,455.5h-0.4c-1,0-1.8,0.4-2.5,1.1c-0.7,0.7-1.1,1.6-1.1,2.6v5.4c0,1,0.4,1.8,1.1,2.5
						c0.7,0.7,1.6,1.1,2.5,1.1h0.4c1,0,1.9-0.4,2.6-1.1c0.7-0.7,1.1-1.6,1.1-2.5v-5.4c0-1-0.4-1.8-1.1-2.6
						C534,455.9,533.2,455.5,532.2,455.5z M534,464.6c0,0.5-0.2,0.9-0.5,1.3c-0.3,0.3-0.8,0.5-1.3,0.5h-0.4c-0.5,0-0.9-0.2-1.3-0.5
						c-0.3-0.4-0.5-0.8-0.5-1.3v-5.4c0-0.5,0.2-0.9,0.5-1.3c0.4-0.3,0.8-0.5,1.3-0.5h0.4c0.5,0,0.9,0.2,1.3,0.5
						c0.3,0.3,0.5,0.8,0.5,1.3V464.6z M541,455.5c-1,0-1.8,0.4-2.6,1.1c-0.7,0.7-1.1,1.6-1.1,2.6v11.7c0.5,0,1-0.2,1.3-0.5
						c0.4-0.3,0.5-0.7,0.5-1.2v-0.9h1.8c1,0,1.9-0.4,2.6-1.1c0.7-0.7,1.1-1.6,1.1-2.5v-5.4c0-1-0.4-1.8-1.1-2.6
						C542.8,455.9,542,455.5,541,455.5z M542.8,464.6c0,0.5-0.2,0.9-0.5,1.3c-0.4,0.3-0.8,0.5-1.3,0.5h-1.8v-7.2
						c0-0.5,0.2-0.9,0.5-1.3c0.4-0.3,0.8-0.5,1.3-0.5c0.5,0,0.9,0.2,1.3,0.5c0.3,0.3,0.5,0.8,0.5,1.3V464.6z M552.2,456.7
						c-0.3-0.3-0.7-0.6-1.2-0.8c-0.4-0.2-0.9-0.3-1.4-0.3c-0.5,0-1,0.1-1.5,0.3c-0.5,0.2-0.8,0.5-1.2,0.8c-0.3,0.3-0.6,0.7-0.8,1.2
						c-0.2,0.4-0.3,0.9-0.3,1.4v5.3c0,0.5,0.1,1,0.3,1.4c0.2,0.4,0.5,0.8,0.8,1.2c0.3,0.3,0.7,0.6,1.2,0.8c0.4,0.2,0.9,0.3,1.4,0.3
						c0.8,0,1.5-0.2,2.2-0.7c0.6-0.5,1.1-1.1,1.3-1.9c0.1-0.2,0.1-0.5-0.1-0.7c-0.1-0.2-0.3-0.4-0.5-0.4c-0.3-0.1-0.5-0.1-0.7,0.1
						c-0.2,0.1-0.4,0.3-0.4,0.6c-0.1,0.4-0.4,0.7-0.7,0.9c-0.3,0.2-0.7,0.4-1.1,0.4c-0.5,0-0.9-0.2-1.3-0.5
						c-0.4-0.4-0.5-0.8-0.5-1.3v-1.2h1.9c0.5,0,1-0.1,1.4-0.3c0.4-0.2,0.8-0.5,1.2-0.8c0.3-0.3,0.6-0.7,0.8-1.2
						c0.2-0.4,0.3-0.9,0.3-1.4v-0.4c0-0.5-0.1-1-0.3-1.4C552.8,457.4,552.5,457,552.2,456.7z M551.5,459.7c0,0.5-0.2,0.9-0.5,1.3
						c-0.4,0.4-0.8,0.6-1.3,0.6h-1.9v-2.3c0-0.5,0.2-0.9,0.5-1.3c0.4-0.4,0.8-0.5,1.3-0.5c0.5,0,0.9,0.2,1.3,0.5
						c0.4,0.4,0.5,0.8,0.5,1.3V459.7z M558.3,455.5c-0.6,0-1.2,0.2-1.9,0.5c-0.2-0.3-0.5-0.5-0.8-0.5c-0.3,0-0.5,0.1-0.6,0.3
						c-0.2,0.2-0.3,0.4-0.3,0.6v11.8c0.5,0,0.9-0.2,1.3-0.5c0.4-0.4,0.6-0.8,0.6-1.2v-7.3c0-0.5,0.2-0.9,0.5-1.2
						c0.3-0.3,0.8-0.5,1.3-0.5c0.5,0,0.9,0.2,1.3,0.5c0.3,0.3,0.5,0.8,0.5,1.3v9.1c0.5,0,0.9-0.2,1.3-0.5c0.4-0.3,0.5-0.8,0.5-1.2
						v-7.3c0-1-0.4-1.9-1.1-2.6C560.2,455.9,559.3,455.5,558.3,455.5z M573.3,461.6c-0.4-0.4-0.8-0.6-1.2-0.8
						c-0.5-0.2-1-0.3-1.5-0.3h-0.3c-0.4,0-0.8-0.2-1.1-0.5c-0.3-0.3-0.5-0.7-0.5-1.1c0-0.4,0.1-0.8,0.4-1.1c0.3-0.3,0.7-0.5,1.1-0.5
						c0.4,0,0.8,0.2,1.1,0.4c0.2,0.2,0.4,0.3,0.6,0.3c0.3,0,0.5-0.1,0.6-0.3c0.2-0.2,0.3-0.4,0.3-0.6c0-0.3-0.1-0.5-0.3-0.6
						c-0.3-0.3-0.7-0.6-1.1-0.7c-0.4-0.2-0.8-0.2-1.3-0.2c-0.5,0-0.9,0.1-1.3,0.3c-0.4,0.2-0.8,0.4-1.1,0.7
						c-0.3,0.3-0.6,0.7-0.7,1.1c-0.2,0.4-0.3,0.8-0.3,1.3c0,0.5,0.1,0.9,0.3,1.3c0.2,0.4,0.4,0.8,0.7,1.1c0.3,0.3,0.7,0.6,1.1,0.7
						c0.4,0.2,0.8,0.3,1.3,0.3l0.3,0c0.6,0,1.1,0.2,1.5,0.6c0.4,0.4,0.6,0.9,0.6,1.4c0,0.6-0.2,1.1-0.6,1.5
						c-0.4,0.4-0.9,0.6-1.5,0.6c-0.5,0-0.9-0.1-1.3-0.4c-0.4-0.3-0.6-0.7-0.7-1.1c-0.1-0.3-0.2-0.4-0.4-0.6
						c-0.2-0.1-0.5-0.1-0.7-0.1c-0.2,0.1-0.4,0.2-0.5,0.4c-0.1,0.2-0.2,0.4-0.1,0.7c0.2,0.8,0.7,1.5,1.4,2.1
						c0.7,0.5,1.5,0.8,2.4,0.8c0.5,0,1-0.1,1.5-0.3c0.5-0.2,0.9-0.5,1.2-0.8c0.3-0.4,0.6-0.8,0.8-1.2c0.2-0.5,0.3-1,0.3-1.5
						c0-0.5-0.1-1-0.3-1.5C573.9,462.4,573.7,462,573.3,461.6z M579.9,466.6c-0.2-0.2-0.4-0.2-0.6-0.3c-0.5,0-0.9-0.2-1.2-0.5
						c-0.4-0.4-0.5-0.8-0.5-1.3v-5.9h1c0.3,0,0.5-0.1,0.6-0.3c0.2-0.2,0.3-0.4,0.3-0.7c0-0.3-0.1-0.5-0.3-0.6
						c-0.2-0.2-0.4-0.3-0.6-0.3h-1v-0.4c0-0.3-0.1-0.5-0.3-0.7c-0.2-0.2-0.4-0.3-0.6-0.3c-0.3,0-0.5,0.1-0.7,0.3
						c-0.2,0.2-0.3,0.4-0.3,0.7v8.1c0,1,0.4,1.9,1.1,2.6c0.7,0.7,1.6,1.1,2.6,1.1c0.3,0,0.5-0.1,0.6-0.3c0.2-0.2,0.3-0.4,0.3-0.7
						C580.2,467,580.1,466.8,579.9,466.6z M585.5,455.5h-0.4c-1,0-1.8,0.4-2.5,1.1c-0.7,0.7-1.1,1.6-1.1,2.6v5.4
						c0,1,0.4,1.8,1.1,2.5c0.7,0.7,1.6,1.1,2.5,1.1h0.4c1,0,1.9-0.4,2.6-1.1c0.7-0.7,1.1-1.6,1.1-2.5v-5.4c0-1-0.4-1.8-1.1-2.6
						C587.3,455.9,586.4,455.5,585.5,455.5z M587.2,464.6c0,0.5-0.2,0.9-0.5,1.3c-0.4,0.3-0.8,0.5-1.3,0.5h-0.4
						c-0.5,0-0.9-0.2-1.3-0.5c-0.3-0.4-0.5-0.8-0.5-1.3v-5.4c0-0.5,0.2-0.9,0.5-1.3c0.4-0.3,0.8-0.5,1.3-0.5h0.4
						c0.5,0,0.9,0.2,1.3,0.5c0.3,0.3,0.5,0.8,0.5,1.3V464.6z M594.2,455.5c-1,0-1.9,0.4-2.6,1.1c-0.7,0.7-1.1,1.6-1.1,2.6v5.4
						c0,1,0.4,1.8,1.1,2.6c0.7,0.7,1.6,1.1,2.6,1.1c1,0,1.8-0.4,2.5-1.1c0.7-0.7,1.1-1.6,1.1-2.6c0-0.2-0.1-0.5-0.3-0.6
						c-0.2-0.2-0.4-0.3-0.6-0.3c-0.3,0-0.5,0.1-0.7,0.3c-0.2,0.2-0.3,0.4-0.3,0.6c0,0.5-0.2,0.9-0.5,1.3c-0.4,0.3-0.8,0.5-1.3,0.5
						c-0.5,0-0.9-0.2-1.3-0.5c-0.3-0.3-0.5-0.8-0.5-1.3v-5.4c0-0.5,0.2-0.9,0.5-1.3c0.3-0.3,0.8-0.5,1.3-0.5c0.5,0,0.9,0.2,1.3,0.5
						c0.2,0.3,0.4,0.5,0.5,0.8c0,0,0,0.1,0,0.1c0,0.1,0,0.2,0,0.3c0,0.3,0.1,0.5,0.3,0.6c0.2,0.2,0.4,0.3,0.6,0.3
						c0.3,0,0.5-0.1,0.6-0.3c0.2-0.2,0.3-0.4,0.3-0.6v0c0-1-0.4-1.8-1.1-2.5C596.1,455.9,595.2,455.5,594.2,455.5z M605,462.1
						c-0.2-0.2-0.5-0.4-0.7-0.6c0.6-0.7,0.9-1.4,0.9-2.3v-1.5c0-0.3-0.1-0.5-0.3-0.6c-0.2-0.2-0.4-0.3-0.6-0.3
						c-0.3,0-0.5,0.1-0.7,0.3c-0.2,0.2-0.3,0.4-0.3,0.6v1.5c0,0.5-0.2,0.9-0.5,1.3c-0.3,0.3-0.7,0.5-1.2,0.5h-0.4v-4.5
						c0-0.2-0.1-0.5-0.3-0.6c-0.2-0.2-0.4-0.3-0.7-0.3c-0.3,0-0.5,0.1-0.6,0.3c-0.2,0.2-0.3,0.4-0.3,0.6v11.8c0.5,0,0.9-0.2,1.3-0.5
						c0.4-0.3,0.5-0.8,0.5-1.2v-3.7h1.4c0.5,0,0.9,0.2,1.2,0.5c0.3,0.4,0.5,0.8,0.5,1.3v3.6c0.5,0,0.9-0.2,1.3-0.5
						c0.4-0.3,0.5-0.8,0.5-1.2v-1.9C606.1,463.6,605.8,462.8,605,462.1z"/>
				</g>
				<g>
					<path class="st16" d="M481.8,444c0.5,0,0.9,0.1,1.4,0.2v-2.6h1.2v7c0,0.5-0.2,2.1-2.7,2.1c-1.1,0-2.9-0.4-2.9-3.5
						C478.8,444.6,480.4,444,481.8,444z M481.7,449.7c1,0,1.5-0.3,1.5-1v-3.4c-0.4-0.2-0.9-0.3-1.4-0.3c-0.9,0-1.8,0.3-1.8,2.2
						C480,449.4,480.9,449.7,481.7,449.7z"/>
					<path class="st16" d="M491.3,449.2v1.1c-0.6,0.3-1.4,0.4-2.3,0.4c-1.4,0-3-0.6-3-3.3c0-0.9,0-3.5,2.9-3.5
						c1.8,0,2.9,1.2,2.9,3.2c0,0.3,0,0.6,0,0.9h-4.5c0.2,1.4,1,1.7,1.8,1.7C490,449.7,490.7,449.5,491.3,449.2z M487.1,447h3.4
						c-0.1-0.8-0.4-1.9-1.7-1.9C487.7,445.1,487.2,445.6,487.1,447z"/>
					<path class="st16" d="M497.1,444.4v1c-0.5-0.2-1-0.4-1.6-0.4c-1.1,0-1.3,0.4-1.3,0.8c0,1.1,3.3,0.4,3.3,2.9
						c0,0.9-0.6,1.9-2.4,1.9c-0.8,0-1.4-0.2-1.9-0.5v-1.1c0.4,0.2,1,0.5,1.8,0.5c0.9,0,1.3-0.4,1.3-0.8c0-1.5-3.3-0.7-3.3-2.9
						c0-0.9,0.6-2,2.4-2C495.9,444,496.5,444.2,497.1,444.4z"/>
					<path class="st16" d="M500.4,443.1h-1.3v-1.3h1.3V443.1z M499.1,444.1h1.2v6.5h-1.2V444.1z"/>
					<path class="st16" d="M507.5,446.1v4.9c0,1-0.5,2.3-2.9,2.3c-0.7,0-1.4-0.1-1.9-0.3v-1.1c0.6,0.2,1.2,0.3,1.8,0.3
						c1.8,0,1.8-0.7,1.8-1.2v-0.6c-0.4,0.1-0.9,0.2-1.3,0.2c-1.9,0-2.9-1.1-2.9-3.2c0-1.9,0.8-3.3,2.8-3.3
						C506.4,444,507.5,444.7,507.5,446.1z M506.3,446c0-0.2,0-0.9-1.4-0.9c-0.7,0-1.6,0.3-1.6,2.3c0,1.9,0.8,2.1,1.7,2.1
						c0.5,0,0.9-0.1,1.3-0.2V446z"/>
					<path class="st16" d="M509.2,450.6v-6c0.1,0,1.3-0.7,2.8-0.7c1.7,0,2.6,0.9,2.6,2.4v4.2h-1.2v-4.3c0-0.6-0.2-1.2-1.5-1.2
						c-0.6,0-1.1,0.1-1.5,0.2v5.3H509.2z"/>
					<path class="st16" d="M527,447.3c0,3-1.8,3.5-2.9,3.5c-2.5,0-2.7-1.6-2.7-2.1v-7h1.2v2.6c0.5-0.1,0.9-0.2,1.4-0.2
						C525.3,444,527,444.6,527,447.3z M525.8,447.3c0-2-0.9-2.2-1.8-2.2c-0.5,0-1,0.1-1.4,0.3v3.4c0,0.7,0.5,1,1.5,1
						C524.8,449.7,525.8,449.4,525.8,447.3z"/>
					<path class="st16" d="M533.8,444.1l-2.7,7.2c-0.6,1.6-1.4,1.9-2,1.9c-0.3,0-0.6,0-0.9-0.1v-1.1c0.2,0.1,0.5,0.1,0.7,0.1
						c0.7,0,1.1-0.8,1.3-1.5l-2.5-6.5h1.3l1.8,4.9l1.7-4.9H533.8z"/>
				</g>
				<g>
					<path class="st17" d="M472.8,450.4c0-10.3-8.5-18.6-19-18.6c-10.5,0-19,8.3-19,18.6c0,10.3,8.5,18.6,19,18.6
						C464.3,469,472.8,460.7,472.8,450.4z"/>
					<g>
						<path class="st18" d="M463.1,468.4c0,0-0.9,0.1-2.7,0.1c-1.8,0-3.2,0.1-3.2,0.1s-2.7-0.3-4.7-0.3s-3.6,1-4.1,1.1
							c-0.6,0.1-0.8,0.5-2.2-0.1c-0.6-0.2-1.1-0.3-2.4-0.2c-0.8,0-1.3-0.1-1.1-0.1c0.5,0.2-0.8-0.8-1.2-0.8c-0.4,0-1.8,0-3.2-0.3
							c-1.1-0.2,3.7-1.2,6.6-1.2c1,0,8.4-0.4,11,0.4C460.2,468.6,465.7,467.5,463.1,468.4z"/>
						<linearGradient id="SVGID_2_" gradientUnits="userSpaceOnUse" x1="444.6562" y1="466.1975" x2="455.8936" y2="452.8983">
							<stop  offset="0" style="stop-color:#F38120"/>
							<stop  offset="1" style="stop-color:#692B12"/>
						</linearGradient>
						<path class="st19" d="M456.7,454.7c0,0-0.1,1.4-1.2,2.2c-1.1,0.8-1.2,2.5-0.9,4.3c-6,1.1-7.4-0.1-7.4-0.1l1-5.6
							c0,0,1.2-1.1,1.3-1.1C449.6,454.3,456.7,454.7,456.7,454.7z"/>
						<g>
							<path class="st20" d="M461,452.5c0.1,0.1,1.7,1.1,2.4,2c0.7,0.9-2.6,0.1-2.6,0.1L461,452.5z"/>
							<polygon class="st21" points="461.1,453.8 463,452.8 461.7,463.1 460.4,463.3 							"/>
							<linearGradient id="SVGID_3_" gradientUnits="userSpaceOnUse" x1="460.5488" y1="457.8584" x2="463.416" y2="457.8584">
								<stop  offset="0" style="stop-color:#FFFFFF"/>
								<stop  offset="1" style="stop-color:#525354"/>
							</linearGradient>
							<polygon class="st22" points="461.1,453.5 463.4,452.2 461.9,463.2 460.5,463.5 460.7,462.8 461.5,462.7 462.8,453.1 
								461.1,454.1 							"/>
							<linearGradient id="SVGID_4_" gradientUnits="userSpaceOnUse" x1="461.8564" y1="458.0762" x2="468.8623" y2="458.0762">
								<stop  offset="0" style="stop-color:#FFFFFF"/>
								<stop  offset="1" style="stop-color:#525354"/>
							</linearGradient>
							<path class="st23" d="M463.4,452.2l5.4,1.3c0,0-0.7,8-0.5,10.5c-5.8-0.7-6.5-0.8-6.5-0.8L463.4,452.2z"/>
							<path class="st24" d="M460.1,463.6c0.1,0,1.7-0.5,1.7-0.5l6.5,0.8l-2.3,0.7l-6-0.7L460.1,463.6z"/>
							<polygon class="st25" points="464,455.9 463.6,459.4 465.2,459.6 465.5,456.2 							"/>
							<polygon class="st26" points="464.3,456.5 464,459 464.8,459 464.9,456.6 							"/>
							<polygon class="st27" points="466.9,454.6 467.3,454.8 466.9,460.4 465.9,461 465.5,460.9 466.5,460.3 							"/>
							<polygon class="st21" points="466.1,455.4 466.8,455.6 466.7,455.1 							"/>
							<path class="st20" d="M468.4,461.2c0,0,0.2,0.3,0.5,1.3c0.3,1,0.9,1.8,1.2,2c0.3,0.1,0,1.1-0.7,0.8c-0.7-0.2-0.9-0.4-0.9-0.4
								s-1,1.1-1.4,0.9c-0.4-0.2-0.4-0.2-0.4-0.2s-0.6,0-0.9-0.1c-0.4,0.1-1.3-0.3-1.6-0.8c-0.3-0.5,0.3-0.8,0.7-0.4
								c0.2-0.1,0.8,0.1,1.1,0.4c0.4-0.2,1.1-0.2,1.5-0.4c0.4-0.2,0.6-0.3,0.6-0.3l0.1-1.8L468.4,461.2z"/>
							<path class="st28" d="M468.9,462.5c-0.2-0.1-1,1.7-0.1,2.5c-0.2,0-1,0.6-0.9,0.4c0.5-0.6,0.1-1.2,0.3-1.5
								c0.1-0.1,0-0.1,0.1-0.7c0-0.5,0.2-2.1,0.2-2.1L468.9,462.5z"/>
							<path class="st28" d="M466.1,464.7c0,0-0.1,0.4,0.7,0.9c-0.1,0-0.4,0-0.6-0.1C465.6,465,465.2,464.1,466.1,464.7z"/>
							<path class="st28" d="M465,464.3c0,0,0.1,0.8,0.8,1.1c0,0-0.7-0.1-0.8-0.1c-0.1-0.1-0.8-0.8-0.4-1.1
								C464.8,464.2,465,464.2,465,464.3z"/>
							<polygon class="st29" points="466.1,455.1 466.9,454.6 466.5,460.3 465.5,460.9 465.5,460.5 466.2,460.1 466.4,455.3 
								466,455.5 							"/>
						</g>
						<g>
							<linearGradient id="SVGID_5_" gradientUnits="userSpaceOnUse" x1="441.1507" y1="458.3906" x2="445.3775" y2="457.7721">
								<stop  offset="0" style="stop-color:#F38120"/>
								<stop  offset="1" style="stop-color:#692B12"/>
							</linearGradient>
							<path class="st30" d="M446,451.8c0,0-3.1,0.8-4.2,1.7c-1.1,0.9-2,3.4-2.9,3.9c-0.8,0.5-2.6,1.3-3,1.8c-0.4,0.4-1.2,1.3-1,2.4
								c0.5-0.8,1.5-1.2,1.8-0.5c0.4,0.8,0.7,0.9,1.3,0.7c0.6-0.2,0.9,0.1,1.1,0.6c0.1,0.5-0.1,0.7,0.7,0.5c0.8-0.2,1.4,0,1.9,0.5
								c0.5,0.5,2.4,0.4,3.6,0.1c-0.2-2.8,0.1-9.9,0.4-10.4C446,452.6,446,451.8,446,451.8z"/>
							<path class="st31" d="M435,461.2c0,0-0.1-0.9,1.5-1.8c1.6-0.9,3.2-1.2,4-3c0.8-1.8,1.2-3,5.2-4.5c-1.5,0.3-3.9,0.7-5.1,2.8
								c-0.8,1.3-0.9,2.4-2.6,2.9C436.3,458.3,435.1,458.9,435,461.2z"/>
							<path class="st32" d="M439.3,462.5c0,0,3.2-5.4,2.8-4.2c-0.5,1.2-1.3,3.7-1.5,4.1c-0.2,0.4-0.7,0.6-0.9,0.7
								C439.5,463.1,439.3,463,439.3,462.5z"/>
							<path class="st32" d="M436.8,461.1c-0.1-0.1,2.7-2.5,3.3-2.9c0.6-0.4,0.1,0.1-0.3,1c-0.4,0.9-1.4,2.6-1.7,2.6
								C437.8,461.8,437.2,462,436.8,461.1z"/>
						</g>
						<path class="st20" d="M461.1,450.3c-0.2-2-0.2-5.4-0.4-7c-0.1-2.1-1.3-4.2-1.8-4.8c0.8-1.1,0.3-1.9-0.6-2.1
							c-0.8-0.2-1.4,0.4-2.4,1.9c-2.1-0.5-6.2,0.5-6.9,1.1c-0.5-0.9-1.6-1.4-2.4-0.9c-0.8,0.5-0.7,1.3-0.7,1.4
							c0,0.2,0.8,0.8,0.8,0.8c-1.2,1.1-0.9,2.3-0.9,2.8c0,0.5-0.4,2.7-0.4,4.3c0,1.6-0.5,2.8,0.6,4.1c-3.2,3.8-1.2,11,0.2,14.4
							c1.4,3.5,2.1,3.2,2.7,3.1c0.6-0.1,0.4-1.5,0.3-2.6c0-1,0.6-1.3,1.1-1.3c0.5,0,3.4-0.4,5.4-0.5c2-0.1,1.9,0.7,2.1,1.6
							c0.1,0.9,0.4,1.8,0.7,1.9c0.3,0.1,0.6-0.1,0.8-0.7c0.2-0.6,0.7-1,1-2.7C461.5,460.7,461.3,452.3,461.1,450.3z M458.5,461
							c-1.5,0.1-8.7,0.7-8.9,0.7c-0.1,0-1,0.3-1.1-1.3c0-1.7,0-4.5,0-4.5s-0.3-0.9,1.4-1c0.2,0,8.7-0.3,8.7-0.3s1.3-0.3,1.3,1.6
							c0,1.8-0.1,3.6-0.1,3.6S460,460.9,458.5,461z"/>
						<path class="st33" d="M446.8,441.2c0,0-0.6,0.1-0.7,1.7c-0.1,1.6-0.3,4-0.3,4.5c-0.1,0.5-0.5,2.5-0.2,3.3
							c0.3,0.8,0.8,1.2,0.8,1.2s-1.2,0.9-1.5,2.1c-0.3,1.2-0.7,4.2,0.4,8.1c1.1,3.9,1.8,7.3,3.4,7.2c0.1-0.1-1.7-1.8-2.3-6.1
							c-0.6-4.2-0.6-9.5,0.5-10c1.1-0.4,1.7-0.3,2.3-0.3c0.7,0,1-0.1,0-0.3c-1-0.3-3-2.2-2.7-3.3c0.3-1.1,0.2-0.2,1.8,0.3
							c1.6,0.4,2.7,2.1,9.7,0.5c1-0.3,2.2-1.3,3.2-0.3c-0.3-3.1-0.2-6.2-0.2-6.2s-3.5,1.4-5.2,1.5c-1.7,0.1-3.4-0.1-4.8-0.1
							c-1.4,0.1-2.6,0.4-3.2,0.3c-0.6-0.1-0.5-3.1,0.1-3.9c0.6-0.8-0.3-1.5-0.7-1.7c-0.4-0.3,0.2-0.8,0.2-1.1
							c-0.8-0.1-1.5,0.8-1,1.3C446.8,440.4,447.4,440.8,446.8,441.2z"/>
						<g>
							<path class="st21" d="M451.6,443.4c0,0,0.7,0.7,0.6,2.3c0.6,0,0.6,0,0.6,0s0.3-1.6-0.7-2.6
								C451.7,443.2,451.6,443.4,451.6,443.4z"/>
							<path class="st21" d="M457,443.1c0,0,0.1,1.5-0.2,2.5c0.7-0.3,0.7-0.3,0.7-0.3s0.4-1.2,0-2.2
								C457.3,443.1,457,443.1,457,443.1z"/>
						</g>
						<path class="st34" d="M446.7,446.2c0,0-0.4,2.6,3.1,3.6c3.5,1.1,6.6,0.5,10.1-1.2c2.4-1.1,3.5-1.8,3-4.3
							c-0.3-0.9-1.3-1.2-2.9-0.5c-1.6,0.7-3.8,2.2-8.5,1.7c-2.4-0.1-3.5-0.1-3.9-0.2C447.4,445.2,446.7,445.3,446.7,446.2z"/>
						<path class="st28" d="M452.5,451.7c0,0,3,0.2,4.9-1.4C457.1,451.2,455.5,452.5,452.5,451.7z"/>
						<path class="st20" d="M445,455.5c0,0,1-0.6,1.1-1.2c0-0.6-2.9-2.9-6.1-10.2c-0.1-0.2,0.9-0.8,0.9-1.8s0.5-2.2-0.9-2
							c-0.8,0.2-0.7,0.1-0.7,0.1s-0.7-1.2-0.7-2.4c0-1.2,0-1.9-0.7-1.5c-0.7,0.4-0.3,2.4-0.2,2.6c0.1,0.2,0,0.4,0,0.4
							s-1.3-0.1-1,0.7c-0.7,0.1-0.7,0.2-0.6,0.7c-0.6,0.3-0.3,0.5-0.1,0.9c0.2,0.4,0.2,1.7,1.1,1.4c0.3,0.6,1,1.3,1.7,1.1
							C439.5,446,442.3,452,445,455.5z"/>
						<path class="st28" d="M439,442.9c0,0-0.2-1,0.8-1.4c-0.4,0.1-1.4,0.8-1.7,0.5c0.2,0.2,0,0.4-0.3,0.7
							C438.2,442.5,438.6,442.4,439,442.9z"/>
						<path class="st28" d="M436.7,440.2c0,0,0.7,2,1.3,1.9c-0.1,0-0.5-0.4-0.7-1C437,440.5,436.9,440,436.7,440.2z"/>
						<path class="st28" d="M437.8,439.4c0,0,0.1,0.8,0.5,1.4c0.2-0.1,0.2-0.1,0.2-0.1S437.9,440.1,437.8,439.4z"/>
						<path class="st28" d="M436.2,440.8c0,0,0.4,0.9,0.7,1.5c0.2,0.4,0.6,0.8-0.3,0.7c0.3,0.2,0.9,0.2,0.7-0.3
							c0.2,0.1,0.7,0.1,0.7-0.5c-0.1,0-0.2,0.5-0.5,0.4C437.2,442.5,436.4,441.4,436.2,440.8z"/>
						<path class="st28" d="M437.9,441.8c0,0-0.4-0.6,0.1-0.8c0.4-0.1,1.4-0.5,1.4-0.5s-0.3-0.9-0.4-1.1c0.2,0.8,0.1,1-0.3,1.2
							c-0.4,0.2-0.9,0.2-1,0.7C437.6,441.6,437.7,441.6,437.9,441.8z"/>
						<linearGradient id="SVGID_6_" gradientUnits="userSpaceOnUse" x1="454.8306" y1="455.7533" x2="454.0058" y2="462.352">
							<stop  offset="0" style="stop-color:#353435"/>
							<stop  offset="1" style="stop-color:#525354"/>
						</linearGradient>
						<path class="st35" d="M456.7,454.7c0,0,0.9,0.3,0.9,1.6c0,1.4-0.1,2.7-0.1,2.7s0.3,1.2-1.6,1.3c-1.9,0.1-7.2,0.3-7.2,0.3
							s-0.3,1.2,1.2,1.1c1.5-0.1,8.8-0.8,8.8-0.8s1.1,0,1.1-1.2c0-1.2,0.1-4.2,0.1-4.2s0-1-1.4-0.9
							C457.1,454.6,456.7,454.7,456.7,454.7z"/>
						<path class="st36" d="M449,439.4c0,0,5-1.5,7-0.8c0.7-0.9,1.4-2.4,2.4-1.9c0.5,0.2,1,1,0.7,1.3c0-0.6-0.9-1.2-1.3-0.4
							c-0.4,0.8,0.5,1.4-0.5,1.8c-1,0.3-1.8,2-4.3,1.4C450.4,440.1,450.5,439.4,449,439.4z"/>
						<path class="st37" d="M461.2,455.2c0.2,3-0.2-2.5-0.3-5.5c0,0,1.2,3-5.4,3.3C458.5,452.8,461.1,453.7,461.2,455.2z"/>
						<path class="st38" d="M445.6,454.9c0,0-4.8-5.9-6.5-10.8c0.2-0.1,1-0.1,1.6-1.1c0.5-1.1,0.2-2.2,0.2-2.2s-0.1,2.4-1.2,2.5
							c-1.1,0.1-1.1,0.9-2,0.5c0.5,0.5,1.3,0.5,1.3,0.5s3.3,8.4,6.1,11.2C445.3,455.3,445.6,454.9,445.6,454.9z"/>
						<path class="st39" d="M448.7,446.7c-0.2,0.5,0.5,1,1.5,1.4c1,0.3,1.7,0.4,2.8,0.7c1.1,0.2,3.6-0.1,4.5-0.5
							c0.9-0.4,3-1.7,3.5-2.3c0.5-0.6,1.4-1.3,1-1.6c-0.7-0.4-1.7,0.2-2.8,1.3c-0.8,0.8-2.9,1-3.9,1.1c-1,0.1-3,0.2-3.9,0.1
							C450.3,446.7,449,446.1,448.7,446.7z"/>
						<path class="st21" d="M448.9,446.6c0,0,3.5,1.4,6.3,0.9c2.7-0.6,4.3-1.4,5.1-2c0.8-0.7,1.2-1.2,1.2-1.2s0.6-0.1-0.2,0.8
							c-0.8,0.9-2.8,2-4.1,2.5c-1.4,0.5-1.8,1.1-4.5,0.5C450.9,447.9,449.4,447.4,448.9,446.6z"/>
						<g>
							<path class="st40" d="M450.9,447.2c0,0.1,0,0.8,0.6,1c0.6,0.2,1-0.7,1-0.7L450.9,447.2z"/>
							<path class="st40" d="M453,447.5c0,0-0.2,1,0.8,1c1,0,0.9-1,0.9-1S453.7,447.6,453,447.5z"/>
							<path class="st40" d="M455.3,447.5c0,0,0.1,1.1,1.2,0.7c0.6-0.3,0.7-0.9,0.6-1.2C456.5,447.1,455.3,447.5,455.3,447.5z"/>
							<path class="st40" d="M457.4,446.9c0,0,0.3,0.9,1.4,0.5c0.6-0.3,0.7-0.8,0.3-1.2C458.7,446.4,457.6,446.9,457.4,446.9z"/>
						</g>
						<path class="st41" d="M450.9,447.4c0,0,1,0.1,1.4,0.3c0.1,0,0.1,0,0.1,0l0.1-0.2l-1.6-0.3L450.9,447.4z"/>
						<path class="st41" d="M453,447.8c0,0,1.2-0.1,1.7,0.1c0.2-0.2,0.1-0.4,0.1-0.4H453L453,447.8z"/>
						<path class="st41" d="M455.3,447.5l0.1,0.4c0,0,1.1-0.6,1.7-0.6c0-0.3,0.2-0.2,0-0.3C457,447,455.2,447.5,455.3,447.5"/>
						<path class="st41" d="M457.4,446.9l0.2,0.3c0,0,1.1-0.7,1.7-0.8c-0.2-0.2-0.1-0.1-0.1-0.2
							C459.1,446.2,457.9,446.9,457.4,446.9z"/>
						<path class="st42" d="M459.2,467.9c0,0-0.5-0.5-0.5-2c0-2.2-1.3-2.2-3.1-1.9c-2.2,0.3-5.9,1.3-5.9,1.3s3.7-0.7,5.9-0.6
							c2.2,0.1,2.1,0.2,2.3,1.3C458,467.1,458.5,468.9,459.2,467.9z"/>
					</g>
				</g>
			</g>
		</g>
	</g>
</g>
</defs>
</g>
</svg>
